<svg width="20" height="20" viewBox="0 0 20 20" fill="none" xmlns="http://www.w3.org/2000/svg">
<path d="M3 16.0012H7.24C7.37161 16.0019 7.50207 15.9767 7.62391 15.927C7.74574 15.8772 7.85656 15.8039 7.95 15.7112L14.87 8.78325L17.71 6.00406C17.8037 5.91112 17.8781 5.80055 17.9289 5.67873C17.9797 5.5569 18.0058 5.42624 18.0058 5.29426C18.0058 5.16229 17.9797 5.03162 17.9289 4.9098C17.8781 4.78797 17.8037 4.6774 17.71 4.58447L13.47 0.295713C13.377 0.202011 13.2664 0.127639 13.1446 0.0768846C13.0227 0.0261307 12.892 0 12.76 0C12.628 0 12.4973 0.0261307 12.3754 0.0768846C12.2536 0.127639 12.143 0.202011 12.05 0.295713L9.23 3.12489L2.29 10.0529C2.19732 10.1463 2.12399 10.2571 2.07423 10.3789C2.02446 10.5007 1.99924 10.6311 2 10.7627V15.0014C2 15.2666 2.10536 15.5209 2.29289 15.7084C2.48043 15.8958 2.73478 16.0012 3 16.0012ZM12.0502 3.12469C12.4407 2.7343 13.0765 2.73151 13.467 3.1219L14.8826 4.53707C15.2732 4.92762 15.2705 5.56373 14.8798 5.95428C14.4893 6.34467 13.8535 6.34745 13.463 5.95707L12.0474 4.54189C11.6568 4.15135 11.6595 3.51523 12.0502 3.12469ZM4 11.5869C4 11.3216 4.1054 11.0672 4.293 10.8796L9.223 5.95108C9.6135 5.56069 10.2465 5.56069 10.637 5.95108L12.0526 7.36625C12.4432 7.7568 12.4432 8.39012 12.0526 8.78067L7.12288 13.7089C6.93535 13.8964 6.68104 14.0017 6.41587 14.0017H5C4.44771 14.0017 4 13.554 4 13.0017V11.5869ZM19 18.0006H1C0.734784 18.0006 0.48043 18.1059 0.292893 18.2934C0.105357 18.4809 0 18.7351 0 19.0003C0 19.2654 0.105357 19.5197 0.292893 19.7072C0.48043 19.8947 0.734784 20 1 20H19C19.2652 20 19.5196 19.8947 19.7071 19.7072C19.8946 19.5197 20 19.2654 20 19.0003C20 18.7351 19.8946 18.4809 19.7071 18.2934C19.5196 18.1059 19.2652 18.0006 19 18.0006Z" fill="black"/>
</svg>
