<svg width="24" height="23" viewBox="0 0 24 23" fill="none" xmlns="http://www.w3.org/2000/svg">
<path d="M21.1667 12.6809V21.0681C21.1667 21.3152 21.0701 21.5523 20.8982 21.7271C20.7263 21.9018 20.4931 22 20.25 22H3.75C3.50688 22 3.27373 21.9018 3.10182 21.7271C2.92991 21.5523 2.83333 21.3152 2.83333 21.0681V12.6809M12 7.08941V22M12 7.08941C12 7.08941 15.8891 7.08941 17.1855 5.77149C17.7007 5.24709 17.99 4.53614 17.9898 3.79494C17.9896 3.05374 17.6999 2.34296 17.1843 1.81885C16.6688 1.29474 15.9697 1.00021 15.2406 1C14.5115 0.999789 13.8122 1.29392 13.2964 1.81773C12 3.13565 12 7.08941 12 7.08941ZM12 7.08941C12 7.08941 8.11091 7.08941 6.81455 5.77149C6.29931 5.24709 6.00999 4.53614 6.0102 3.79494C6.01041 3.05374 6.30012 2.34296 6.81566 1.81885C7.33119 1.29474 8.03034 1.00021 8.75942 1C9.48849 0.999789 10.1878 1.29392 10.7036 1.81773C12 3.13565 12 7.08941 12 7.08941ZM1.91667 7.08941H22.0833C22.5896 7.08941 23 7.50665 23 8.02133V11.749C23 12.2637 22.5896 12.6809 22.0833 12.6809H1.91667C1.41041 12.6809 1 12.2637 1 11.749V8.02133C1 7.50665 1.41041 7.08941 1.91667 7.08941Z" stroke="black" stroke-width="2" stroke-linecap="round" stroke-linejoin="round"/>
</svg>
