<svg width="219" height="247" viewBox="0 0 219 247" fill="none" xmlns="http://www.w3.org/2000/svg">
<path d="M162.356 69.9993H78.7648C76.6664 69.9993 74.9653 71.495 74.9653 73.34V86.7029C74.9653 88.5479 76.6664 90.0436 78.7648 90.0436H162.356C164.454 90.0436 166.155 88.5479 166.155 86.7029V73.34C166.155 71.495 164.454 69.9993 162.356 69.9993Z" fill="#C6CDDD"/>
<path d="M158.556 90.0436V120.11C158.556 120.996 158.156 121.846 157.443 122.472C156.731 123.099 155.764 123.451 154.757 123.451H86.364C85.3563 123.451 84.3899 123.099 83.6773 122.472C82.9648 121.846 82.5644 120.996 82.5644 120.11V90.0436" fill="#C6CDDD"/>
<path d="M142.054 65.2748C136.681 69.9993 120.56 69.9993 120.56 69.9993C120.56 69.9993 120.56 55.8259 125.934 51.1014C128.072 49.2237 130.971 48.1693 133.993 48.17C137.015 48.1708 139.913 49.2266 142.049 51.1054C144.186 52.9843 145.387 55.5323 145.388 58.1893C145.389 60.8464 144.19 63.395 142.054 65.2748ZM99.0666 65.2748C104.44 69.9993 120.56 69.9993 120.56 69.9993C120.56 69.9993 120.56 55.8259 115.187 51.1014C113.049 49.2237 110.15 48.1693 107.128 48.17C104.106 48.1708 101.208 49.2266 99.0712 51.1054C96.9343 52.9843 95.7334 55.5323 95.7326 58.1893C95.7317 60.8464 96.9309 63.395 99.0666 65.2748Z" fill="#C6CDDD"/>
<path d="M158.556 90.0436V120.11C158.556 120.996 158.156 121.846 157.443 122.472C156.731 123.099 155.764 123.451 154.757 123.451H86.364C85.3563 123.451 84.3899 123.099 83.6773 122.472C82.9648 121.846 82.5644 120.996 82.5644 120.11V90.0436M120.56 69.9993V123.451M120.56 69.9993C120.56 69.9993 136.681 69.9993 142.054 65.2748C144.19 63.395 145.389 60.8464 145.388 58.1893C145.387 55.5323 144.186 52.9843 142.049 51.1054C139.913 49.2266 137.015 48.1708 133.993 48.17C130.971 48.1693 128.072 49.2237 125.934 51.1014C120.56 55.8259 120.56 69.9993 120.56 69.9993ZM120.56 69.9993C120.56 69.9993 104.44 69.9993 99.0666 65.2748C96.9309 63.395 95.7317 60.8464 95.7326 58.1893C95.7334 55.5323 96.9343 52.9843 99.0712 51.1054C101.208 49.2266 104.106 48.1708 107.128 48.17C110.15 48.1693 113.049 49.2237 115.187 51.1014C120.56 55.8259 120.56 69.9993 120.56 69.9993ZM176.373 243.003H76.8286C76.2562 243.003 75.8092 242.477 75.8264 241.866C76.1458 230.486 67.3833 211.201 49.7588 215.723C26.6847 221.643 20.3405 209.178 27.4754 196.183C27.7079 195.759 27.651 195.214 27.321 194.872L21.1253 188.462C20.712 188.035 20.7344 187.319 21.1734 186.922L25.7822 182.753C26.2454 182.334 26.2393 181.568 25.7632 181.166C22.3308 178.267 19.5662 176.461 18.8954 173.114C18.1663 169.477 22.5407 169.477 22.5407 163.501C22.5407 157.526 2.70328 157.266 4.0713 149.212C5.43932 141.158 29.9945 107.903 26.672 100.368C18.6524 82.1816 33.2336 37.0175 71.8736 16.71C118.144 -7.60804 160.09 8.65594 173.213 18.7885C191.682 33.0491 224.587 63.6313 212.339 119.334C208.207 138.122 195.12 159.287 182.447 179.61C171.161 197.709 172.16 226.672 177.299 241.554C177.539 242.249 177.066 243.003 176.373 243.003ZM78.7648 69.9993H162.356C164.454 69.9993 166.155 71.495 166.155 73.34V86.7029C166.155 88.5479 164.454 90.0436 162.356 90.0436H78.7648C76.6664 90.0436 74.9653 88.5479 74.9653 86.7029V73.34C74.9653 71.495 76.6664 69.9993 78.7648 69.9993Z" stroke="#31B1C2" stroke-width="8" stroke-linecap="round" stroke-linejoin="round"/>
</svg>
